<svg width="374" height="66" viewBox="0 0 374 66" fill="none" xmlns="http://www.w3.org/2000/svg">
<path d="M16.6647 52.5475L0 66H66.0198L48.8719 52.5475H16.6647Z" fill="#00BE6E"/>
<path d="M13.5347 16.7493L0 0.181285V65.8188L13.5347 48.769V16.7493Z" fill="#00BE6E"/>
<path d="M49.3526 13.4513L66.0187 0H0L17.1441 13.4513H49.3526Z" fill="#00BE6E"/>
<path d="M52.485 49.2507L66.0183 65.82V0.18258L52.485 17.23V49.2507Z" fill="#00BE6E"/>
<path d="M88.2577 54.985V54.9572C88.2577 52.8636 89.8789 51.1023 92.0861 51.1023C93.4838 51.1023 94.3514 51.6183 95.035 52.3724L93.9866 53.5039C93.4694 52.9612 92.9257 52.5835 92.073 52.5835C90.8426 52.5835 89.9473 53.6438 89.9473 54.931V54.9572C89.9473 56.2733 90.8557 57.3337 92.1558 57.3337C92.9546 57.3337 93.5392 56.9576 94.0716 56.4108L95.0921 57.4182C94.3645 58.2287 93.5128 58.8016 92.073 58.8016C89.8789 58.8016 88.2577 57.0827 88.2577 54.985Z" fill="white"/>
<path d="M98.2904 52.7086H95.9144V51.2541H102.372V52.7086H99.9961V58.6323H98.2904V52.7086Z" fill="white"/>
<path d="M109.762 54.9309C109.762 53.5039 108.799 52.5679 107.653 52.5679C106.507 52.5679 105.5 53.5194 105.5 54.9588C105.5 56.3846 106.507 57.3205 107.653 57.3205C108.813 57.3205 109.762 56.4107 109.762 54.9309ZM103.851 51.2542H105.542V52.4834C106.088 51.7149 106.856 51.1023 108.044 51.1023C109.792 51.1023 111.481 52.4834 111.481 54.9588C111.481 57.4034 109.805 58.7871 108.044 58.7871C106.827 58.7871 106.06 58.1733 105.542 57.4879V60.8691H103.851V51.2542Z" fill="white"/>
<path d="M119.126 54.9585C119.126 53.6581 118.19 52.5837 116.864 52.5837C115.506 52.5837 114.641 53.6451 114.641 54.9585C114.641 56.2443 115.576 57.3349 116.89 57.3349C118.26 57.3349 119.126 56.2574 119.126 54.9585ZM112.948 54.9585C112.948 52.849 114.626 51.1023 116.89 51.1023C119.154 51.1023 120.818 52.8216 120.818 54.9585C120.818 57.0565 119.141 58.8016 116.864 58.8016C114.611 58.8016 112.948 57.0827 112.948 54.9585Z" fill="white"/>
<path d="M122.672 51.2536H124.322V56.2014C125.482 54.5513 126.642 52.9039 127.816 51.2536H129.409V58.6323H127.774V53.7129L124.266 58.6323H122.672V51.2536Z" fill="white"/>
<path d="M133.251 52.7086H130.875V51.2541H137.332V52.7086H134.957V58.6323H133.251V52.7086Z" fill="white"/>
<path d="M143.592 54.4262C143.48 53.3373 142.837 52.4836 141.72 52.4836C140.684 52.4836 139.959 53.2806 139.805 54.4262H143.592ZM138.128 54.9438C138.128 52.8328 139.624 51.1011 141.732 51.1011C144.082 51.1011 145.27 52.9452 145.27 55.0683C145.27 55.1803 145.257 55.4615 145.241 55.5447H139.819C140 56.7463 140.854 57.418 141.942 57.418C142.767 57.418 143.356 57.1092 143.943 56.5374L144.935 57.418C144.236 58.2549 143.271 58.8004 141.914 58.8004C139.777 58.8004 138.128 57.2503 138.128 54.9438Z" fill="white"/>
<path d="M146.064 58.621L146.19 57.2347C146.302 57.2639 146.568 57.2931 146.679 57.2931C147.532 57.2931 148.118 56.8734 148.118 51.2543H153.695V58.633H152.005V52.7083H149.698C149.698 58.0614 148.692 58.7175 147.056 58.7175C146.791 58.7175 146.314 58.6622 146.064 58.621Z" fill="white"/>
<path d="M159.243 57.2633C160.095 57.2633 160.585 56.8869 160.585 56.1741C160.585 55.5168 160.081 55.1534 159.215 55.1534H157.649V57.2633H159.243ZM155.957 51.2537H157.649V53.8388H159.339C161.003 53.8388 162.275 54.5674 162.275 56.1741C162.275 57.6974 161.199 58.6323 159.467 58.6323H155.957V51.2537Z" fill="white"/>
<path d="M163.894 51.2536H165.586V54.245H168.843V51.2536H170.535V58.6323H168.843V55.6563H165.586V58.6323H163.894V51.2536Z" fill="white"/>
<path d="M185.71 54.8749V52.6262H183.921C183.025 52.6262 182.479 53.0435 182.479 53.7433C182.479 54.4562 183.068 54.8749 183.935 54.8749H185.71ZM182.509 55.8675C181.501 55.5609 180.788 54.8192 180.788 53.6573C180.788 52.2331 181.838 51.2548 183.696 51.2548H187.401V58.6334H185.71V56.1459H184.201L182.453 58.6334H180.466L182.509 55.8675Z" fill="white"/>
<path d="M193.992 51.2536H195.67V54.7918L198.886 51.2536H200.868L198.004 54.3574L201.106 58.6323H199.11L196.872 55.5852L195.67 56.8579V58.6323H193.992V51.2536Z" fill="white"/>
<path d="M207.773 54.9585C207.773 53.6581 206.835 52.5837 205.509 52.5837C204.151 52.5837 203.288 53.6451 203.288 54.9585C203.288 56.2443 204.223 57.3349 205.536 57.3349C206.907 57.3349 207.773 56.2574 207.773 54.9585ZM201.595 54.9585C201.595 52.849 203.275 51.1023 205.536 51.1023C207.801 51.1023 209.464 52.8216 209.464 54.9585C209.464 57.0565 207.789 58.8016 205.509 58.8016C203.256 58.8016 201.595 57.0827 201.595 54.9585Z" fill="white"/>
<path d="M211.321 51.2536H212.998L215.305 54.6794L217.624 51.2536H219.303V58.6323H217.599V53.7129L215.276 57.0258L212.971 53.7421V58.6323H211.321V51.2536Z" fill="white"/>
<path d="M221.564 51.2536H228.146V58.6323H226.455V52.7086H223.252V58.6323H221.564V51.2536Z" fill="white"/>
<path d="M234.966 55.5444C234.53 55.3784 233.932 55.2516 233.273 55.2516C232.212 55.2516 231.583 55.6847 231.583 56.4268C231.583 57.1248 232.212 57.5157 233.01 57.5157C234.125 57.5157 234.966 56.8873 234.966 55.9635V55.5444ZM234.925 58.6328V57.7257C234.42 58.3262 233.654 58.7874 232.535 58.7874C231.136 58.7874 229.905 57.9924 229.905 56.4811C229.905 54.8463 231.179 54.0634 232.896 54.0634C233.79 54.0634 234.366 54.1902 234.938 54.371V54.2325C234.938 53.2096 234.293 52.6538 233.121 52.6538C232.296 52.6538 231.682 52.8329 231.011 53.1144L230.546 51.7598C231.36 51.3957 232.156 51.1435 233.357 51.1435C235.539 51.1435 236.601 52.2905 236.601 54.2603V58.6328H234.925Z" fill="white"/>
<path d="M238.751 51.2536H240.439V54.245H243.696V51.2536H245.39V58.6323H243.696V55.6563H240.439V58.6323H238.751V51.2536Z" fill="white"/>
<path d="M247.651 51.2536H249.301V56.2014C250.462 54.5513 251.622 52.9039 252.794 51.2536H254.389V58.6323H252.753V53.7129L249.244 58.6323H247.651V51.2536Z" fill="white"/>
<path d="M261.221 54.8749V52.6262H259.432C258.537 52.6262 257.993 53.0435 257.993 53.7433C257.993 54.4562 258.578 54.8749 259.447 54.8749H261.221ZM258.021 55.8675C257.013 55.5609 256.301 54.8192 256.301 53.6573C256.301 52.2331 257.348 51.2548 259.208 51.2548H262.912V58.6334H261.221V56.1459H259.712L257.964 58.6334H255.979L258.021 55.8675Z" fill="white"/>
<path d="M87.9297 7.32292H113.162V35.9986H106.856V13.0184H94.2373V35.9986H87.9297V7.32292Z" fill="white"/>
<path d="M158.547 21.7841C161.703 21.7841 163.543 19.8961 163.543 17.3574C163.543 14.5324 161.576 13.0182 158.422 13.0182H153.547V21.7841H158.547ZM147.237 7.32314H158.955C165.796 7.32314 169.935 11.3783 169.935 17.3192C169.935 23.953 164.772 27.3936 158.339 27.3936H153.547V35.9986H147.237V7.32314Z" fill="white"/>
<path d="M174.357 7.32292H196.191V12.9352H180.626V18.7509H192.74V24.3651H180.626V30.3816H196.191V35.9986H174.357V7.32292Z" fill="white"/>
<path d="M260.112 7.32292H281.943V12.9352H266.38V18.7509H278.496V24.3651H266.38V30.3816H281.943V35.9986H260.112V7.32292Z" fill="white"/>
<path d="M200.089 21.6594C200.089 13.5085 206.236 6.83235 215.043 6.83235C220.453 6.83235 223.485 8.87858 226.148 11.5035L222.376 15.844C220.167 13.835 218.281 12.6495 215.005 12.6495C210.171 12.6495 206.687 16.6625 206.687 21.6594C206.687 26.5774 210.088 30.6713 215.005 30.6713C218.281 30.6713 220.288 29.3601 222.539 27.3125L226.558 31.6124C223.606 34.7664 220.329 36.4864 214.797 36.4864C206.357 36.4864 200.089 29.9725 200.089 21.6594Z" fill="white"/>
<path d="M244.379 30.4686C247.166 30.4686 248.848 29.482 248.848 27.2722C248.848 25.3461 247.415 24.1589 244.176 24.1589H236.882V30.4686H244.379ZM242.703 18.9169C245.486 18.9169 247.25 18.0149 247.25 15.8024C247.25 13.9185 245.77 12.8543 243.111 12.8543H236.882V18.9169H242.703ZM230.738 7.32292H244.055C247.329 7.32292 249.909 8.22718 251.55 9.86535C252.86 11.1753 253.52 12.7725 253.52 14.8186C253.52 18.0558 251.795 19.8579 249.742 21.0052C253.068 22.2739 255.116 24.1974 255.116 28.1312C255.116 33.3764 250.851 35.9986 244.379 35.9986H230.738V7.32292Z" fill="white"/>
<path d="M295.148 12.936H286.375V7.32377H311.736L308.917 12.936H301.457V35.9926H295.148V12.936Z" fill="white"/>
<path d="M348.578 21.6594C348.578 14.9861 344.234 9.7805 338.258 9.7805C332.273 9.7805 328.052 14.9001 328.052 21.6594C328.052 28.3368 332.356 33.5387 338.337 33.5387C344.321 33.5387 348.578 28.4175 348.578 21.6594ZM324.776 23.0524H318.96V35.998H315.725V7.32392H318.96V20.103H324.776C325.433 12.6083 330.76 6.83235 338.337 6.83235C346.449 6.83235 351.894 13.3015 351.894 21.6199C351.894 29.9345 346.368 36.4864 338.258 36.4864C330.595 36.4864 325.35 30.7078 324.776 23.0524Z" fill="white"/>
<path d="M355.689 7.32292H374V10.2724H358.924V35.9986H355.689V7.32292Z" fill="white"/>
<path d="M119.45 7.32292H141.286V12.9352H125.72V18.7509H137.078V24.3651H125.72V30.3816H141.286V35.9986H119.45V7.32292Z" fill="white"/>
<path d="M177.424 55.5744C176.988 55.408 176.39 55.2811 175.73 55.2811C174.67 55.2811 174.04 55.7143 174.04 56.4564C174.04 57.1544 174.67 57.5453 175.467 57.5453C176.583 57.5453 177.424 56.9169 177.424 55.993V55.5744ZM177.383 58.6624V57.7553C176.877 58.3557 176.112 58.817 174.992 58.817C173.593 58.817 172.362 58.022 172.362 56.5107C172.362 54.8759 173.636 54.093 175.354 54.093C176.248 54.093 176.823 54.2198 177.396 54.4006V54.262C177.396 53.2391 176.75 52.6834 175.578 52.6834C174.753 52.6834 174.139 52.8624 173.469 53.1439L173.004 51.7893C173.817 51.4253 174.613 51.173 175.814 51.173C177.997 51.173 179.058 52.3201 179.058 54.2899V58.6624H177.383Z" fill="white"/>
</svg>
