<svg width="374" height="71" viewBox="0 0 374 71" fill="none" xmlns="http://www.w3.org/2000/svg">
<path d="M16.6647 55.9123L0 70.2263H66.0198L48.8719 55.9123H16.6647Z" fill="#00BE6E"/>
<path d="M13.5347 17.8218L0 0.192893V70.0335L13.5347 51.8919V17.8218Z" fill="#00BE6E"/>
<path d="M49.3526 14.3127L66.0187 0H0L17.1441 14.3127H49.3526Z" fill="#00BE6E"/>
<path d="M52.485 52.4045L66.0183 70.0348V0.194271L52.485 18.3333V52.4045Z" fill="#00BE6E"/>
<path d="M88.2577 58.5059V58.4763C88.2577 56.2487 89.8789 54.3746 92.0861 54.3746C93.4838 54.3746 94.3514 54.9236 95.035 55.726L93.9866 56.93C93.4694 56.3526 92.9257 55.9507 92.073 55.9507C90.8426 55.9507 89.9473 57.0789 89.9473 58.4485V58.4763C89.9473 59.8767 90.8557 61.005 92.1558 61.005C92.9546 61.005 93.5392 60.6049 94.0716 60.023L95.0921 61.095C94.3645 61.9573 93.5128 62.567 92.073 62.567C89.8789 62.567 88.2577 60.738 88.2577 58.5059Z" fill="#19295F"/>
<path d="M98.2904 56.0838H95.9144V54.5361H102.372V56.0838H99.9961V62.3868H98.2904V56.0838Z" fill="#19295F"/>
<path d="M109.762 58.4484C109.762 56.93 108.799 55.9341 107.653 55.9341C106.507 55.9341 105.5 56.9465 105.5 58.4781C105.5 59.9951 106.507 60.991 107.653 60.991C108.813 60.991 109.762 60.023 109.762 58.4484ZM103.851 54.5363H105.542V55.8442C106.088 55.0264 106.856 54.3746 108.044 54.3746C109.792 54.3746 111.481 55.8442 111.481 58.4781C111.481 61.0792 109.805 62.5516 108.044 62.5516C106.827 62.5516 106.06 61.8985 105.542 61.1691V64.7669H103.851V54.5363Z" fill="#19295F"/>
<path d="M119.126 58.4778C119.126 57.0941 118.19 55.9509 116.864 55.9509C115.506 55.9509 114.641 57.0802 114.641 58.4778C114.641 59.8459 115.576 61.0063 116.89 61.0063C118.26 61.0063 119.126 59.8598 119.126 58.4778ZM112.948 58.4778C112.948 56.2332 114.626 54.3746 116.89 54.3746C119.154 54.3746 120.818 56.204 120.818 58.4778C120.818 60.7101 119.141 62.567 116.864 62.567C114.611 62.567 112.948 60.7379 112.948 58.4778Z" fill="#19295F"/>
<path d="M122.672 54.5356H124.322V59.8003C125.482 58.0445 126.642 56.2916 127.816 54.5356H129.409V62.3868H127.774V57.1524L124.266 62.3868H122.672V54.5356Z" fill="#19295F"/>
<path d="M133.251 56.0838H130.875V54.5361H137.332V56.0838H134.957V62.3868H133.251V56.0838Z" fill="#19295F"/>
<path d="M143.592 57.9114C143.48 56.7528 142.837 55.8443 141.72 55.8443C140.684 55.8443 139.959 56.6924 139.805 57.9114H143.592ZM138.128 58.4622C138.128 56.2159 139.624 54.3734 141.732 54.3734C144.082 54.3734 145.27 56.3355 145.27 58.5945C145.27 58.7138 145.257 59.013 145.241 59.1015H139.819C140 60.3801 140.854 61.0947 141.942 61.0947C142.767 61.0947 143.356 60.7662 143.943 60.1578L144.935 61.0947C144.236 61.9852 143.271 62.5657 141.914 62.5657C139.777 62.5657 138.128 60.9163 138.128 58.4622Z" fill="#19295F"/>
<path d="M146.064 62.3748L146.19 60.8997C146.302 60.9308 146.568 60.9619 146.679 60.9619C147.532 60.9619 148.118 60.5153 148.118 54.5364H153.695V62.3876H152.005V56.0835H149.698C149.698 61.7794 148.692 62.4775 147.056 62.4775C146.791 62.4775 146.314 62.4187 146.064 62.3748Z" fill="#19295F"/>
<path d="M159.243 60.9301C160.095 60.9301 160.585 60.5297 160.585 59.7712C160.585 59.0719 160.081 58.6852 159.215 58.6852H157.649V60.9301H159.243ZM155.957 54.5358H157.649V57.2863H159.339C161.003 57.2863 162.275 58.0616 162.275 59.7712C162.275 61.3921 161.199 62.3868 159.467 62.3868H155.957V54.5358Z" fill="#19295F"/>
<path d="M163.894 54.5356H165.586V57.7186H168.843V54.5356H170.535V62.3868H168.843V59.2202H165.586V62.3868H163.894V54.5356Z" fill="#19295F"/>
<path d="M185.71 58.3888V55.9961H183.921C183.025 55.9961 182.479 56.4402 182.479 57.1848C182.479 57.9433 183.068 58.3888 183.935 58.3888H185.71ZM182.509 59.4449C181.501 59.1188 180.788 58.3296 180.788 57.0933C180.788 55.5778 181.838 54.5369 183.696 54.5369H187.401V62.388H185.71V59.7412H184.201L182.453 62.388H180.466L182.509 59.4449Z" fill="#19295F"/>
<path d="M193.992 54.5356H195.67V58.3004L198.886 54.5356H200.868L198.004 57.8382L201.106 62.3868H199.11L196.872 59.1446L195.67 60.4988V62.3868H193.992V54.5356Z" fill="#19295F"/>
<path d="M207.773 58.4778C207.773 57.0941 206.835 55.9509 205.509 55.9509C204.151 55.9509 203.288 57.0802 203.288 58.4778C203.288 59.8459 204.223 61.0063 205.536 61.0063C206.907 61.0063 207.773 59.8598 207.773 58.4778ZM201.595 58.4778C201.595 56.2332 203.275 54.3746 205.536 54.3746C207.801 54.3746 209.464 56.204 209.464 58.4778C209.464 60.7101 207.789 62.567 205.509 62.567C203.256 62.567 201.595 60.7379 201.595 58.4778Z" fill="#19295F"/>
<path d="M211.321 54.5356H212.998L215.305 58.1808L217.624 54.5356H219.303V62.3868H217.599V57.1524L215.276 60.6774L212.971 57.1835V62.3868H211.321V54.5356Z" fill="#19295F"/>
<path d="M221.564 54.5356H228.146V62.3868H226.455V56.0837H223.252V62.3868H221.564V54.5356Z" fill="#19295F"/>
<path d="M234.966 59.1012C234.53 58.9245 233.932 58.7896 233.273 58.7896C232.212 58.7896 231.583 59.2504 231.583 60.04C231.583 60.7828 232.212 61.1987 233.01 61.1987C234.125 61.1987 234.966 60.5301 234.966 59.5471V59.1012ZM234.925 62.3873V61.4222C234.42 62.0611 233.654 62.5518 232.535 62.5518C231.136 62.5518 229.905 61.706 229.905 60.0978C229.905 58.3584 231.179 57.5253 232.896 57.5253C233.79 57.5253 234.366 57.6603 234.938 57.8527V57.7053C234.938 56.6169 234.293 56.0255 233.121 56.0255C232.296 56.0255 231.682 56.216 231.011 56.5156L230.546 55.0742C231.36 54.6869 232.156 54.4185 233.357 54.4185C235.539 54.4185 236.601 55.6389 236.601 57.7349V62.3873H234.925Z" fill="#19295F"/>
<path d="M238.751 54.5356H240.439V57.7186H243.696V54.5356H245.39V62.3868H243.696V59.2202H240.439V62.3868H238.751V54.5356Z" fill="#19295F"/>
<path d="M247.651 54.5356H249.301V59.8003C250.462 58.0445 251.622 56.2916 252.794 54.5356H254.389V62.3868H252.753V57.1524L249.244 62.3868H247.651V54.5356Z" fill="#19295F"/>
<path d="M261.221 58.3888V55.9961H259.432C258.537 55.9961 257.993 56.4402 257.993 57.1848C257.993 57.9433 258.578 58.3888 259.447 58.3888H261.221ZM258.021 59.4449C257.013 59.1188 256.301 58.3296 256.301 57.0933C256.301 55.5778 257.348 54.5369 259.208 54.5369H262.912V62.388H261.221V59.7412H259.712L257.964 62.388H255.979L258.021 59.4449Z" fill="#19295F"/>
<path d="M87.9297 7.79185H113.162V38.3037H106.856V13.852H94.2373V38.3037H87.9297V7.79185Z" fill="#19295F"/>
<path d="M158.547 23.179C161.703 23.179 163.543 21.1702 163.543 18.4689C163.543 15.4629 161.576 13.8518 158.422 13.8518H153.547V23.179H158.547ZM147.237 7.79208H158.955C165.796 7.79208 169.935 12.1069 169.935 18.4282C169.935 25.4868 164.772 29.1478 158.339 29.1478H153.547V38.3037H147.237V7.79208Z" fill="#19295F"/>
<path d="M174.357 7.79185H196.191V13.7635H180.626V19.9516H192.74V25.9254H180.626V32.3271H196.191V38.3037H174.357V7.79185Z" fill="#19295F"/>
<path d="M260.112 7.79185H281.943V13.7635H266.38V19.9516H278.496V25.9254H266.38V32.3271H281.943V38.3037H260.112V7.79185Z" fill="#19295F"/>
<path d="M200.089 23.0464C200.089 14.3735 206.236 7.26986 215.043 7.26986C220.453 7.26986 223.485 9.44712 226.148 12.2402L222.376 16.8586C220.167 14.721 218.281 13.4595 215.005 13.4595C210.171 13.4595 206.687 17.7295 206.687 23.0464C206.687 28.2792 210.088 32.6354 215.005 32.6354C218.281 32.6354 220.288 31.2401 222.539 29.0615L226.558 33.6367C223.606 36.9927 220.329 38.8228 214.797 38.8228C206.357 38.8228 200.089 31.8918 200.089 23.0464Z" fill="#19295F"/>
<path d="M244.379 32.4196C247.166 32.4196 248.848 31.3699 248.848 29.0186C248.848 26.9691 247.415 25.7059 244.176 25.7059H236.882V32.4196H244.379ZM242.703 20.1282C245.486 20.1282 247.25 19.1685 247.25 16.8143C247.25 14.8098 245.77 13.6774 243.111 13.6774H236.882V20.1282H242.703ZM230.738 7.79185H244.055C247.329 7.79185 249.909 8.75401 251.55 10.4971C252.86 11.8909 253.52 13.5904 253.52 15.7675C253.52 19.212 251.795 21.1295 249.742 22.3503C253.068 23.7003 255.116 25.7469 255.116 29.9326C255.116 35.5137 250.851 38.3037 244.379 38.3037H230.738V7.79185Z" fill="#19295F"/>
<path d="M295.148 13.7644H286.375V7.79275H311.736L308.917 13.7644H301.457V38.2974H295.148V13.7644Z" fill="#19295F"/>
<path d="M348.578 23.0464C348.578 15.9457 344.234 10.4068 338.258 10.4068C332.273 10.4068 328.052 15.8543 328.052 23.0464C328.052 30.1513 332.356 35.6863 338.337 35.6863C344.321 35.6863 348.578 30.2373 348.578 23.0464ZM324.776 24.5286H318.96V38.3031H315.725V7.79291H318.96V21.3903H324.776C325.433 13.4156 330.76 7.26986 338.337 7.26986C346.449 7.26986 351.894 14.1533 351.894 23.0044C351.894 31.8513 346.368 38.8228 338.258 38.8228C330.595 38.8228 325.35 32.6742 324.776 24.5286Z" fill="#19295F"/>
<path d="M355.689 7.79185H374V10.9302H358.924V38.3037H355.689V7.79185Z" fill="#19295F"/>
<path d="M119.45 7.79185H141.286V13.7635H125.72V19.9516H137.078V25.9254H125.72V32.3271H141.286V38.3037H119.45V7.79185Z" fill="#19295F"/>
<path d="M177.424 59.1331C176.988 58.9561 176.39 58.8211 175.73 58.8211C174.67 58.8211 174.04 59.2819 174.04 60.0715C174.04 60.8143 174.67 61.2302 175.467 61.2302C176.583 61.2302 177.424 60.5616 177.424 59.5785V59.1331ZM177.383 62.4188V61.4536C176.877 62.0925 176.112 62.5833 174.992 62.5833C173.593 62.5833 172.362 61.7375 172.362 60.1293C172.362 58.3899 173.636 57.5568 175.354 57.5568C176.248 57.5568 176.823 57.6917 177.396 57.8841V57.7367C177.396 56.6482 176.75 56.0569 175.578 56.0569C174.753 56.0569 174.139 56.2475 173.469 56.5469L173.004 55.1057C173.817 54.7183 174.613 54.4498 175.814 54.4498C177.997 54.4498 179.058 55.6704 179.058 57.7663V62.4188H177.383Z" fill="#19295F"/>
</svg>
